<svg role="img" xmlns="http://www.w3.org/2000/svg" xmlns:xlink="http://www.w3.org/1999/xlink" xml:lang="en" height="205.24pt" width="339.19928634059943pt" viewBox="4.574 -204 363.199 229.24"><title>实际反相微分器的基本连接</title><desc>输入经电容接到反相端，电阻从输出反馈到反相端，同相端接地。</desc><style>:root{color:#172127}.bg{fill:#fffaf0}@media(prefers-color-scheme:dark){:root{color:#e8eee8}.bg{fill:#121a1d}}</style><rect class="bg" x="4.573999999999998" y="-204.00000000000003" width="363.19928634059943" height="229.24"/><path d="M 170.1,-93.60000000000001 L 170.1,-138.6 L 248.042,-93.6 L 170.1,-48.6 L 170.1,-93.6 M 248.042,-93.6" style="stroke:currentColor;fill:none;stroke-width:2;stroke-dasharray:-;stroke-linecap:round;stroke-linejoin:round;" /><path d="M 176.24278579257492,-116.10000000000001 L 183.443,-116.1" style="stroke:currentColor;fill:none;stroke-width:2;stroke-dasharray:-;stroke-linecap:round;stroke-linejoin:round;" /><path d="M 176.24278579257492,-71.10000000000001 L 183.443,-71.1" style="stroke:currentColor;fill:none;stroke-width:2;stroke-dasharray:-;stroke-linecap:round;stroke-linejoin:round;" /><path d="M 179.84278579257494,-67.5 L 179.843,-74.7" style="stroke:currentColor;fill:none;stroke-width:2;stroke-dasharray:-;stroke-linecap:round;stroke-linejoin:round;" /><path d="M 147.6,-116.10000000000001 L 170.1,-116.1" style="stroke:currentColor;fill:none;stroke-width:2;stroke-dasharray:-;stroke-linecap:round;stroke-linejoin:round;" /><path d="M 147.6,-71.10000000000001 L 170.1,-71.1" style="stroke:currentColor;fill:none;stroke-width:2;stroke-dasharray:-;stroke-linecap:round;stroke-linejoin:round;" /><path d="M 248.04228634059945,-93.60000000000001 L 270.542,-93.6" style="stroke:currentColor;fill:none;stroke-width:2;stroke-dasharray:-;stroke-linecap:round;stroke-linejoin:round;" /><path d="M 116.99999999999999,-116.10000000000001 L 132.3,-116.1 L 147.6,-116.1" style="stroke:currentColor;fill:none;stroke-width:2;stroke-dasharray:-;stroke-linecap:round;stroke-linejoin:round;" /><path d="M 28.8,-116.10000000000001 L 69.66,-116.1 M 69.66,-125.1 L 69.66,-107.1 M 76.14,-125.1 L 76.14,-107.1 M 76.14,-116.1 L 117,-116.1" style="stroke:currentColor;fill:none;stroke-width:2;stroke-dasharray:-;stroke-linecap:round;stroke-linejoin:round;" /><path d="M 147.6,-71.10000000000001 L 133.2,-71.1 L 118.8,-71.1" style="stroke:currentColor;fill:none;stroke-width:2;stroke-dasharray:-;stroke-linecap:round;stroke-linejoin:round;" /><path d="M 118.8,-71.10000000000001 L 118.8,-56.7 L 109.8,-56.7 L 127.8,-56.7 M 112.5,-52.38 L 125.1,-52.38 M 117,-48.06 L 120.6,-48.06" style="stroke:currentColor;fill:none;stroke-width:2;stroke-dasharray:-;stroke-linecap:round;stroke-linejoin:round;" /><path d="M 270.54228634059945,-93.60000000000001 L 292.142,-93.6 L 313.742,-93.6" style="stroke:currentColor;fill:none;stroke-width:2;stroke-dasharray:-;stroke-linecap:round;stroke-linejoin:round;" /><path d="M 313.74228634059943,-93.60000000000001 L 313.742,-72 L 322.742,-69 L 304.742,-63 L 322.742,-57 L 304.742,-51 L 322.742,-45 L 304.742,-39 L 313.742,-36 L 313.742,-14.4" style="stroke:currentColor;fill:none;stroke-width:2;stroke-dasharray:-;stroke-linecap:round;stroke-linejoin:round;" /><path d="M 313.74228634059943,-14.399999999999997 L 313.742,0 L 304.742,0 L 322.742,0 M 307.442,4.32 L 320.042,4.32 M 311.942,8.64 L 315.542,8.64" style="stroke:currentColor;fill:none;stroke-width:2;stroke-dasharray:-;stroke-linecap:round;stroke-linejoin:round;" /><path d="M 270.54228634059945,-93.60000000000001 L 270.542,-128.7 L 270.542,-163.8" style="stroke:currentColor;fill:none;stroke-width:2;stroke-dasharray:-;stroke-linecap:round;stroke-linejoin:round;" /><path d="M 270.54228634059945,-163.79999999999998 L 211.771,-163.8 L 208.771,-154.8 L 202.771,-172.8 L 196.771,-154.8 L 190.771,-172.8 L 184.771,-154.8 L 178.771,-172.8 L 175.771,-163.8 L 117,-163.8" style="stroke:currentColor;fill:none;stroke-width:2;stroke-dasharray:-;stroke-linecap:round;stroke-linejoin:round;" /><path d="M 116.99999999999997,-163.8 L 117,-139.95 L 117,-116.1" style="stroke:currentColor;fill:none;stroke-width:2;stroke-dasharray:-;stroke-linecap:round;stroke-linejoin:round;" /><text x="76.49999999999999" y="-147.98000000000002" dominant-baseline="central" fill="currentColor" font-size="11" font-family="sans" text-anchor="middle"><tspan x="76.49999999999999" dy="11">C1</tspan></text><text x="25.2" y="-143.3" dominant-baseline="central" fill="currentColor" font-size="11" font-family="sans" text-anchor="middle"><tspan x="25.2" dy="11">vi</tspan></text><text x="337.14228634059947" y="-126.2" dominant-baseline="central" fill="currentColor" font-size="11" font-family="sans" text-anchor="middle"><tspan x="337.14228634059947" dy="11">vo</tspan></text><text x="344.34228634059946" y="-61.4" dominant-baseline="central" fill="currentColor" font-size="11" font-family="sans" text-anchor="middle"><tspan x="344.34228634059946" dy="11">RL</tspan></text><text x="193.77114317029972" y="-187.4" dominant-baseline="ideographic" fill="currentColor" font-size="11" font-family="sans" text-anchor="middle"><tspan x="193.77114317029972" dy="11">Rf</tspan></text><circle cx="117" cy="-116.1" r="2.7" style="stroke:currentColor;fill:currentColor;stroke-width:2;stroke-dasharray:-;" /><circle cx="28.8" cy="-116.1" r="2.7" style="stroke:currentColor;fill:currentColor;stroke-width:2;stroke-dasharray:-;" /><circle cx="313.742" cy="-93.6" r="2.7" style="stroke:currentColor;fill:currentColor;stroke-width:2;stroke-dasharray:-;" /></svg>