<svg role="img" xmlns="http://www.w3.org/2000/svg" xmlns:xlink="http://www.w3.org/1999/xlink" xml:lang="en" height="255.53999999999994pt" width="348.20000000000005pt" viewBox="-20.2 -239.9 372.2 279.54"><title>分压偏置、耦合电容和发射极旁路齐全的共射极放大器</title><desc>十二伏单电源共射极放大器。基极由八十二千欧和十八千欧分压偏置，输入经六百欧源电阻和输入耦合电容接入；集电极经二点二千欧电阻上拉，输出通过耦合电容驱动十千欧负载；发射极的一千欧电阻与旁路电容并联接地。</desc><style>:root{color:#172127}.bg{fill:#fffaf0}@media(prefers-color-scheme:dark){:root{color:#e8eee8}.bg{fill:#121a1d}}</style><rect class="bg" x="-20.199999999999996" y="-239.89999999999995" width="372.20000000000005" height="279.53999999999996"/><circle cx="14.4" cy="-46.8" r="18" style="stroke:currentColor;fill:none;stroke-width:2;stroke-dasharray:-;" /><path d="M 216.0,-93.60000000000001 L 229.2,-93.6" style="stroke:currentColor;fill:none;stroke-width:2;stroke-dasharray:-;stroke-linecap:round;stroke-linejoin:round;" /><path d="M 229.2,-106.80000000000001 L 229.2,-80.4" style="stroke:currentColor;fill:none;stroke-width:2;stroke-dasharray:-;stroke-linecap:round;stroke-linejoin:round;" /><path d="M 229.2,-100.19999999999999 L 243.06,-112.08 L 243.06,-118.68" style="stroke:currentColor;fill:none;stroke-width:2;stroke-dasharray:-;stroke-linecap:round;stroke-linejoin:round;" /><path d="M 229.2,-87.00000000000001 L 243.06,-75.12 L 243.06,-68.52" style="stroke:currentColor;fill:none;stroke-width:2;stroke-dasharray:-;stroke-linecap:round;stroke-linejoin:round;" /><path d="M 229.2,-87.00000000000001 L 236.227,-80.977" style="stroke:currentColor;fill:none;stroke-width:2;stroke-dasharray:-;stroke-linecap:round;stroke-linejoin:round;" /><path d="M 241.541 -76.422 L 233.884 -78.244 L 238.57 -83.71 Z" style="stroke:currentColor;fill:currentColor;stroke-linecap:butt;stroke-linejoin:miter;" /><path d="M 100.8,-201.6 L 171.93,-201.6 L 243.06,-201.6" style="stroke:currentColor;fill:none;stroke-width:2;stroke-dasharray:-;stroke-linecap:round;stroke-linejoin:round;" /><path d="M 243.06,-201.6 L 243.06,-178.14 L 252.06,-175.14 L 234.06,-169.14 L 252.06,-163.14 L 234.06,-157.14 L 252.06,-151.14 L 234.06,-145.14 L 243.06,-142.14 L 243.06,-118.68" style="stroke:currentColor;fill:none;stroke-width:2;stroke-dasharray:-;stroke-linecap:round;stroke-linejoin:round;" /><path d="M 131.4,-201.6 L 131.4,-165.6 L 140.4,-162.6 L 122.4,-156.6 L 140.4,-150.6 L 122.4,-144.6 L 140.4,-138.6 L 122.4,-132.6 L 131.4,-129.6 L 131.4,-93.6" style="stroke:currentColor;fill:none;stroke-width:2;stroke-dasharray:-;stroke-linecap:round;stroke-linejoin:round;" /><path d="M 131.4,-93.60000000000001 L 173.7,-93.6 L 216,-93.6" style="stroke:currentColor;fill:none;stroke-width:2;stroke-dasharray:-;stroke-linecap:round;stroke-linejoin:round;" /><path d="M 131.4,-93.60000000000001 L 131.4,-64.8 L 140.4,-61.8 L 122.4,-55.8 L 140.4,-49.8 L 122.4,-43.8 L 140.4,-37.8 L 122.4,-31.8 L 131.4,-28.8 L 131.4,-0" style="stroke:currentColor;fill:none;stroke-width:2;stroke-dasharray:-;stroke-linecap:round;stroke-linejoin:round;" /><path d="M 131.4,-0.0 L 131.4,14.4 L 122.4,14.4 L 140.4,14.4 M 125.1,18.72 L 137.7,18.72 M 129.6,23.04 L 133.2,23.04" style="stroke:currentColor;fill:none;stroke-width:2;stroke-dasharray:-;stroke-linecap:round;stroke-linejoin:round;" /><path d="M 243.06,-68.52 L 243.06,-52.26 L 252.06,-49.26 L 234.06,-43.26 L 252.06,-37.26 L 234.06,-31.26 L 252.06,-25.26 L 234.06,-19.26 L 243.06,-16.26 L 243.06,-0" style="stroke:currentColor;fill:none;stroke-width:2;stroke-dasharray:-;stroke-linecap:round;stroke-linejoin:round;" /><path d="M 243.06,-0.0 L 243.06,14.4 L 234.06,14.4 L 252.06,14.4 M 236.76,18.72 L 249.36,18.72 M 241.26,23.04 L 244.86,23.04" style="stroke:currentColor;fill:none;stroke-width:2;stroke-dasharray:-;stroke-linecap:round;stroke-linejoin:round;" /><path d="M 243.06,-68.52 L 269.16,-68.52 L 295.26,-68.52" style="stroke:currentColor;fill:none;stroke-width:2;stroke-dasharray:-;stroke-linecap:round;stroke-linejoin:round;" /><path d="M 295.26,-68.52 L 295.26,-37.5 M 304.26,-37.5 L 286.26,-37.5 M 304.26,-31.02 L 286.26,-31.02 M 295.26,-31.02 L 295.26,-0" style="stroke:currentColor;fill:none;stroke-width:2;stroke-dasharray:-;stroke-linecap:round;stroke-linejoin:round;" /><path d="M 295.26,-0.0 L 295.26,14.4 L 286.26,14.4 L 304.26,14.4 M 288.96,18.72 L 301.56,18.72 M 293.46,23.04 L 297.06,23.04" style="stroke:currentColor;fill:none;stroke-width:2;stroke-dasharray:-;stroke-linecap:round;stroke-linejoin:round;" /><path d="M 14.4,-0.0 L 14.4,-28.8 L 14.4,-28.8 M 14.4,-64.8 L 14.4,-64.8 L 14.4,-93.6" style="stroke:currentColor;fill:none;stroke-width:2;stroke-dasharray:-;stroke-linecap:round;stroke-linejoin:round;" /><path d="M 23.400000000000006,-46.800000000000004 L 22.65,-48.663 L 21.9,-50.4 L 21.15,-51.891 L 20.4,-53.035 L 19.65,-53.755 L 18.9,-54 L 18.15,-53.755 L 17.4,-53.035 L 16.65,-51.891 L 15.9,-50.4 L 15.15,-48.663 L 14.4,-46.8 L 13.65,-44.937 L 12.9,-43.2 L 12.15,-41.709 L 11.4,-40.565 L 10.65,-39.845 L 9.9,-39.6 L 9.15,-39.845 L 8.4,-40.565 L 7.65,-41.709 L 6.9,-43.2 L 6.15,-44.937 L 5.4,-46.8" style="stroke:currentColor;fill:none;stroke-width:2;stroke-dasharray:-;stroke-linecap:round;stroke-linejoin:round;" /><path d="M 14.4,-0.0 L 14.4,14.4 L 5.4,14.4 L 23.4,14.4 M 8.1,18.72 L 20.7,18.72 M 12.6,23.04 L 16.2,23.04" style="stroke:currentColor;fill:none;stroke-width:2;stroke-dasharray:-;stroke-linecap:round;stroke-linejoin:round;" /><path d="M 14.400000000000007,-93.60000000000001 L 18.9,-93.6 L 21.9,-102.6 L 27.9,-84.6 L 33.9,-102.6 L 39.9,-84.6 L 45.9,-102.6 L 51.9,-84.6 L 54.9,-93.6 L 59.4,-93.6" style="stroke:currentColor;fill:none;stroke-width:2;stroke-dasharray:-;stroke-linecap:round;stroke-linejoin:round;" /><path d="M 59.400000000000006,-93.60000000000001 L 75.96,-93.6 M 75.96,-102.6 L 75.96,-84.6 M 82.44,-102.6 L 82.44,-84.6 M 82.44,-93.6 L 99,-93.6" style="stroke:currentColor;fill:none;stroke-width:2;stroke-dasharray:-;stroke-linecap:round;stroke-linejoin:round;" /><path d="M 99.0,-93.60000000000001 L 157.5,-93.6 L 216,-93.6" style="stroke:currentColor;fill:none;stroke-width:2;stroke-dasharray:-;stroke-linecap:round;stroke-linejoin:round;" /><path d="M 243.06,-118.68 L 275.82,-118.68 M 275.82,-127.68 L 275.82,-109.68 M 282.3,-127.68 L 282.3,-109.68 M 282.3,-118.68 L 315.06,-118.68" style="stroke:currentColor;fill:none;stroke-width:2;stroke-dasharray:-;stroke-linecap:round;stroke-linejoin:round;" /><path d="M 315.06,-118.68 L 315.06,-77.34 L 324.06,-74.34 L 306.06,-68.34 L 324.06,-62.34 L 306.06,-56.34 L 324.06,-50.34 L 306.06,-44.34 L 315.06,-41.34 L 315.06,-0" style="stroke:currentColor;fill:none;stroke-width:2;stroke-dasharray:-;stroke-linecap:round;stroke-linejoin:round;" /><path d="M 315.06,-0.0 L 315.06,14.4 L 306.06,14.4 L 324.06,14.4 M 308.76,18.72 L 321.36,18.72 M 313.26,23.04 L 316.86,23.04" style="stroke:currentColor;fill:none;stroke-width:2;stroke-dasharray:-;stroke-linecap:round;stroke-linejoin:round;" /><text x="246.66" y="-104.30000000000001" dominant-baseline="central" fill="currentColor" font-size="11" font-family="sans" text-anchor="start"><tspan x="246.66" dy="11">Q1</tspan></text><text x="104.39999999999999" y="-228.79999999999995" dominant-baseline="central" fill="currentColor" font-size="11" font-family="sans" text-anchor="middle"><tspan x="104.39999999999999" dy="11">+12 V = VCC</tspan></text><text x="243.06" y="-216.2" dominant-baseline="ideographic" fill="currentColor" font-size="11" font-family="sans" text-anchor="middle"><tspan x="243.06" dy="11">RC  2.20 kΩ</tspan></text><text x="241.26" y="-136.16000000000003" dominant-baseline="central" fill="currentColor" font-size="11" font-family="sans" text-anchor="middle"><tspan x="241.26" dy="11">C</tspan></text><text x="131.4" y="-101.0" dominant-baseline="hanging" fill="currentColor" font-size="11" font-family="sans" text-anchor="middle"><tspan x="131.4" dy="11">R1  82 kΩ</tspan></text><text x="215.27999999999997" y="-119.0" dominant-baseline="central" fill="currentColor" font-size="11" font-family="sans" text-anchor="middle"><tspan x="215.27999999999997" dy="11">B</tspan></text><text x="131.4" y="-7.399999999999997" dominant-baseline="hanging" fill="currentColor" font-size="11" font-family="sans" text-anchor="middle"><tspan x="131.4" dy="11">R2  18 kΩ</tspan></text><text x="243.06" y="-7.399999999999997" dominant-baseline="hanging" fill="currentColor" font-size="11" font-family="sans" text-anchor="middle"><tspan x="243.06" dy="11">RE  1.00 kΩ</tspan></text><text x="295.26" y="-83.12" dominant-baseline="ideographic" fill="currentColor" font-size="11" font-family="sans" text-anchor="middle"><tspan x="295.26" dy="11">CE</tspan></text><text x="241.26" y="-63.31999999999999" dominant-baseline="central" fill="currentColor" font-size="11" font-family="sans" text-anchor="middle"><tspan x="241.26" dy="11">E</tspan></text><text x="14.4" y="-7.4" dominant-baseline="hanging" fill="currentColor" font-size="11" font-family="sans" text-anchor="middle"><tspan x="14.4" dy="11">vs</tspan></text><text x="36.900000000000006" y="-117.2" dominant-baseline="ideographic" fill="currentColor" font-size="11" font-family="sans" text-anchor="middle"><tspan x="36.900000000000006" dy="11">Rs  600 Ω</tspan></text><text x="79.2" y="-117.2" dominant-baseline="ideographic" fill="currentColor" font-size="11" font-family="sans" text-anchor="middle"><tspan x="79.2" dy="11">Cin</tspan></text><text x="280.86" y="-150.56" dominant-baseline="central" fill="currentColor" font-size="11" font-family="sans" text-anchor="middle"><tspan x="280.86" dy="11">Cout</tspan></text><text x="329.46000000000004" y="-148.4" dominant-baseline="central" fill="currentColor" font-size="11" font-family="sans" text-anchor="middle"><tspan x="329.46000000000004" dy="11">vo</tspan></text><text x="315.06" y="-133.28000000000003" dominant-baseline="ideographic" fill="currentColor" font-size="11" font-family="sans" text-anchor="middle"><tspan x="315.06" dy="11">RL</tspan></text><circle cx="100.8" cy="-201.6" r="2.7" style="stroke:currentColor;fill:currentColor;stroke-width:2;stroke-dasharray:-;" /><circle cx="243.06" cy="-118.68" r="2.7" style="stroke:currentColor;fill:currentColor;stroke-width:2;stroke-dasharray:-;" /><circle cx="216" cy="-93.6" r="2.7" style="stroke:currentColor;fill:currentColor;stroke-width:2;stroke-dasharray:-;" /><circle cx="315.06" cy="-118.68" r="2.7" style="stroke:currentColor;fill:currentColor;stroke-width:2;stroke-dasharray:-;" /></svg>