<svg role="img" xmlns="http://www.w3.org/2000/svg" xmlns:xlink="http://www.w3.org/1999/xlink" xml:lang="en" height="205.24pt" width="354.9732863405995pt" viewBox="-11.2 -204 378.973 229.24"><title>同相运算放大器</title><desc>输入接同相端，反相端通过接地电阻与输出反馈电阻形成分压网络。</desc><style>:root{color:#172127}.bg{fill:#fffaf0}@media(prefers-color-scheme:dark){:root{color:#e8eee8}.bg{fill:#121a1d}}</style><rect class="bg" x="-11.200000000000019" y="-204.00000000000003" width="378.9732863405995" height="229.24"/><path d="M 170.1,-93.60000000000001 L 170.1,-138.6 L 248.042,-93.6 L 170.1,-48.6 L 170.1,-93.6 M 248.042,-93.6" style="stroke:currentColor;fill:none;stroke-width:2;stroke-dasharray:-;stroke-linecap:round;stroke-linejoin:round;" /><path d="M 176.24278579257492,-116.10000000000001 L 183.443,-116.1" style="stroke:currentColor;fill:none;stroke-width:2;stroke-dasharray:-;stroke-linecap:round;stroke-linejoin:round;" /><path d="M 176.24278579257492,-71.10000000000001 L 183.443,-71.1" style="stroke:currentColor;fill:none;stroke-width:2;stroke-dasharray:-;stroke-linecap:round;stroke-linejoin:round;" /><path d="M 179.84278579257494,-67.5 L 179.843,-74.7" style="stroke:currentColor;fill:none;stroke-width:2;stroke-dasharray:-;stroke-linecap:round;stroke-linejoin:round;" /><path d="M 147.6,-116.10000000000001 L 170.1,-116.1" style="stroke:currentColor;fill:none;stroke-width:2;stroke-dasharray:-;stroke-linecap:round;stroke-linejoin:round;" /><path d="M 147.6,-71.10000000000001 L 170.1,-71.1" style="stroke:currentColor;fill:none;stroke-width:2;stroke-dasharray:-;stroke-linecap:round;stroke-linejoin:round;" /><path d="M 248.04228634059945,-93.60000000000001 L 270.542,-93.6" style="stroke:currentColor;fill:none;stroke-width:2;stroke-dasharray:-;stroke-linecap:round;stroke-linejoin:round;" /><path d="M 116.99999999999999,-116.10000000000001 L 132.3,-116.1 L 147.6,-116.1" style="stroke:currentColor;fill:none;stroke-width:2;stroke-dasharray:-;stroke-linecap:round;stroke-linejoin:round;" /><path d="M 28.8,-71.10000000000001 L 88.2,-71.1 L 147.6,-71.1" style="stroke:currentColor;fill:none;stroke-width:2;stroke-dasharray:-;stroke-linecap:round;stroke-linejoin:round;" /><path d="M 270.54228634059945,-93.60000000000001 L 292.142,-93.6 L 313.742,-93.6" style="stroke:currentColor;fill:none;stroke-width:2;stroke-dasharray:-;stroke-linecap:round;stroke-linejoin:round;" /><path d="M 313.74228634059943,-93.60000000000001 L 313.742,-72 L 322.742,-69 L 304.742,-63 L 322.742,-57 L 304.742,-51 L 322.742,-45 L 304.742,-39 L 313.742,-36 L 313.742,-14.4" style="stroke:currentColor;fill:none;stroke-width:2;stroke-dasharray:-;stroke-linecap:round;stroke-linejoin:round;" /><path d="M 313.74228634059943,-14.399999999999997 L 313.742,0 L 304.742,0 L 322.742,0 M 307.442,4.32 L 320.042,4.32 M 311.942,8.64 L 315.542,8.64" style="stroke:currentColor;fill:none;stroke-width:2;stroke-dasharray:-;stroke-linecap:round;stroke-linejoin:round;" /><path d="M 270.54228634059945,-93.60000000000001 L 270.542,-128.7 L 270.542,-163.8" style="stroke:currentColor;fill:none;stroke-width:2;stroke-dasharray:-;stroke-linecap:round;stroke-linejoin:round;" /><path d="M 270.54228634059945,-163.79999999999998 L 211.771,-163.8 L 208.771,-154.8 L 202.771,-172.8 L 196.771,-154.8 L 190.771,-172.8 L 184.771,-154.8 L 178.771,-172.8 L 175.771,-163.8 L 117,-163.8" style="stroke:currentColor;fill:none;stroke-width:2;stroke-dasharray:-;stroke-linecap:round;stroke-linejoin:round;" /><path d="M 116.99999999999997,-163.8 L 117,-139.95 L 117,-116.1" style="stroke:currentColor;fill:none;stroke-width:2;stroke-dasharray:-;stroke-linecap:round;stroke-linejoin:round;" /><path d="M 116.99999999999999,-116.10000000000001 L 83.7,-116.1 L 80.7,-107.1 L 74.7,-125.1 L 68.7,-107.1 L 62.7,-125.1 L 56.7,-107.1 L 50.7,-125.1 L 47.7,-116.1 L 14.4,-116.1" style="stroke:currentColor;fill:none;stroke-width:2;stroke-dasharray:-;stroke-linecap:round;stroke-linejoin:round;" /><path d="M 14.39999999999998,-116.10000000000002 L 14.4,-66.15 L 14.4,-16.2" style="stroke:currentColor;fill:none;stroke-width:2;stroke-dasharray:-;stroke-linecap:round;stroke-linejoin:round;" /><path d="M 14.39999999999998,-16.2 L 14.4,-1.8 L 5.4,-1.8 L 23.4,-1.8 M 8.1,2.52 L 20.7,2.52 M 12.6,6.84 L 16.2,6.84" style="stroke:currentColor;fill:none;stroke-width:2;stroke-dasharray:-;stroke-linecap:round;stroke-linejoin:round;" /><text x="25.2" y="-98.30000000000001" dominant-baseline="central" fill="currentColor" font-size="11" font-family="sans" text-anchor="middle"><tspan x="25.2" dy="11">vi</tspan></text><text x="337.14228634059947" y="-126.2" dominant-baseline="central" fill="currentColor" font-size="11" font-family="sans" text-anchor="middle"><tspan x="337.14228634059947" dy="11">vo</tspan></text><text x="344.34228634059946" y="-61.4" dominant-baseline="central" fill="currentColor" font-size="11" font-family="sans" text-anchor="middle"><tspan x="344.34228634059946" dy="11">RL</tspan></text><text x="193.77114317029972" y="-187.4" dominant-baseline="ideographic" fill="currentColor" font-size="11" font-family="sans" text-anchor="middle"><tspan x="193.77114317029972" dy="11">Rf</tspan></text><text x="62.09999999999998" y="-140.78" dominant-baseline="central" fill="currentColor" font-size="11" font-family="sans" text-anchor="middle"><tspan x="62.09999999999998" dy="11">Rg</tspan></text><circle cx="117" cy="-116.1" r="2.7" style="stroke:currentColor;fill:currentColor;stroke-width:2;stroke-dasharray:-;" /><circle cx="28.8" cy="-71.1" r="2.7" style="stroke:currentColor;fill:currentColor;stroke-width:2;stroke-dasharray:-;" /><circle cx="313.742" cy="-93.6" r="2.7" style="stroke:currentColor;fill:currentColor;stroke-width:2;stroke-dasharray:-;" /></svg>