<svg role="img" xmlns="http://www.w3.org/2000/svg" xmlns:xlink="http://www.w3.org/1999/xlink" xml:lang="en" height="245.46pt" width="280.238pt" viewBox="-9.172 -210.02 304.238 269.46"><title>NMOS 状态案例 M-4</title><desc>电阻负载NMOS状态判断电路。漏极经RD  1 kΩ接+5 V，栅极由共地理想源设为+1.8 V，源极和体端参考为+1.0 V。</desc><style>:root{color:#172127}.bg{fill:#fffaf0}@media(prefers-color-scheme:dark){:root{color:#e8eee8}.bg{fill:#121a1d}}</style><rect class="bg" x="-9.171999999999999" y="-210.02" width="304.238" height="269.46000000000004"/><circle cx="172.8" cy="-6.3" r="18" style="stroke:currentColor;fill:none;stroke-width:2;stroke-dasharray:-;" /><path d="M 172.79999999999998,-86.39999999999999 L 172.8,-71.4 L 196.8,-71.4 L 196.8,-47.4 L 172.8,-47.4 L 172.8,-32.4" style="stroke:currentColor;fill:none;stroke-width:2;stroke-dasharray:-;stroke-linecap:round;stroke-linejoin:round;" /><path d="M 202.79999999999998,-71.4 L 202.8,-47.4" style="stroke:currentColor;fill:none;stroke-width:2;stroke-dasharray:-;stroke-linecap:round;stroke-linejoin:round;" /><path d="M 202.79999999999998,-59.4 L 222,-59.4" style="stroke:currentColor;fill:none;stroke-width:2;stroke-dasharray:-;stroke-linecap:round;stroke-linejoin:round;" /><path d="M 172.79999999999998,-180.0 L 172.8,-151.2 L 181.8,-148.2 L 163.8,-142.2 L 181.8,-136.2 L 163.8,-130.2 L 181.8,-124.2 L 163.8,-118.2 L 172.8,-115.2 L 172.8,-86.4" style="stroke:currentColor;fill:none;stroke-width:2;stroke-dasharray:-;stroke-linecap:round;stroke-linejoin:round;" /><path d="M 25.2,-59.4 L 123.6,-59.4 L 222,-59.4" style="stroke:currentColor;fill:none;stroke-width:2;stroke-dasharray:-;stroke-linecap:round;stroke-linejoin:round;" /><path d="M 172.79999999999998,-32.4 L 172.8,-24.3 L 172.8,-24.3 M 172.8,11.7 L 172.8,11.7 L 172.8,19.8" style="stroke:currentColor;fill:none;stroke-width:2;stroke-dasharray:-;stroke-linecap:round;stroke-linejoin:round;" /><path d="M 176.39999999999998,2.7000000000000024 L 169.2,2.7" style="stroke:currentColor;fill:none;stroke-width:2;stroke-dasharray:-;stroke-linecap:round;stroke-linejoin:round;" /><path d="M 172.79999999999998,-18.9 L 172.8,-11.7" style="stroke:currentColor;fill:none;stroke-width:2;stroke-dasharray:-;stroke-linecap:round;stroke-linejoin:round;" /><path d="M 176.39999999999998,-15.299999999999997 L 169.2,-15.3" style="stroke:currentColor;fill:none;stroke-width:2;stroke-dasharray:-;stroke-linecap:round;stroke-linejoin:round;" /><path d="M 172.79999999999998,19.80000000000001 L 172.8,34.2 L 163.8,34.2 L 181.8,34.2 M 166.5,38.52 L 179.1,38.52 M 171,42.84 L 174.6,42.84" style="stroke:currentColor;fill:none;stroke-width:2;stroke-dasharray:-;stroke-linecap:round;stroke-linejoin:round;" /><path d="M 189.0,-156.6 L 189,-144 L 189,-140.4" style="stroke:currentColor;fill:none;stroke-width:2;stroke-dasharray:-;stroke-linecap:round;stroke-linejoin:round;" /><path d="M 189 -133.4 L 186.3 -140.4 L 191.7 -140.4 Z" style="stroke:currentColor;fill:currentColor;stroke-linecap:butt;stroke-linejoin:miter;" /><text x="225.6" y="-70.4" dominant-baseline="central" fill="currentColor" font-size="11" font-family="sans" text-anchor="start"><tspan x="225.6" dy="11">M (NMOS)</tspan></text><text x="135.0" y="-198.92" dominant-baseline="central" fill="currentColor" font-size="11" font-family="sans" text-anchor="middle"><tspan x="135.0" dy="11">+5 V</tspan></text><text x="225.0" y="-140.6" dominant-baseline="central" fill="currentColor" font-size="11" font-family="sans" text-anchor="middle"><tspan x="225.0" dy="11">RD  1 kΩ</tspan></text><text x="185.04" y="-104.6" dominant-baseline="central" fill="currentColor" font-size="11" font-family="sans" text-anchor="middle"><tspan x="185.04" dy="11">D</tspan></text><text x="23.400000000000002" y="-79.39999999999999" dominant-baseline="central" fill="currentColor" font-size="11" font-family="sans" text-anchor="middle"><tspan x="23.400000000000002" dy="11">+1.8 V</tspan></text><text x="217.67999999999998" y="-84.8" dominant-baseline="central" fill="currentColor" font-size="11" font-family="sans" text-anchor="middle"><tspan x="217.67999999999998" dy="11">G</tspan></text><text x="206.99999999999997" y="-13.699999999999998" dominant-baseline="central" fill="currentColor" font-size="11" font-family="sans" text-anchor="middle"><tspan x="206.99999999999997" dy="11">+1.0 V</tspan></text><text x="185.04" y="-32.599999999999994" dominant-baseline="central" fill="currentColor" font-size="11" font-family="sans" text-anchor="middle"><tspan x="185.04" dy="11">S, B</tspan></text><text x="189.0" y="-171.2" dominant-baseline="ideographic" fill="currentColor" font-size="11" font-family="sans" text-anchor="middle"><tspan x="189.0" dy="11">ID</tspan></text><circle cx="172.8" cy="-180" r="2.7" style="stroke:currentColor;fill:currentColor;stroke-width:2;stroke-dasharray:-;" /><circle cx="172.8" cy="-86.4" r="2.7" style="stroke:currentColor;fill:currentColor;stroke-width:2;stroke-dasharray:-;" /><circle cx="25.2" cy="-59.4" r="2.7" style="stroke:currentColor;fill:currentColor;stroke-width:2;stroke-dasharray:-;" /></svg>